<mxfile host="app.diagrams.net" modified="2023-06-10T12:51:15.811Z" agent="Mozilla/5.0 (Windows NT 10.0; Win64; x64) AppleWebKit/537.36 (KHTML, like Gecko) Chrome/114.0.0.0 Safari/537.36" version="21.3.7" etag="p5lUApZtwY2-anLVcZPU" type="github">
  <diagram name="Seite-1" id="_hmDRQpjGcW1U24V50pc">
    <mxGraphModel>
      <root>
        <mxCell id="0" />
        <mxCell id="1" parent="0" />
      </root>
    </mxGraphModel>
  </diagram>
</mxfile>
